<svg width="684" height="48" viewBox="0 0 684 48" fill="none" xmlns="http://www.w3.org/2000/svg">
<path fill-rule="evenodd" clip-rule="evenodd" d="M39.666 24.9213V24.8897C39.666 22.2358 37.7401 20.0622 35.088 20.0622C32.4364 20.0622 30.5508 22.1963 30.5508 24.8558V24.8897C30.5508 27.5515 32.4761 29.7149 35.1191 29.7149C37.7724 29.7149 39.666 27.5786 39.666 24.9213ZM29.1875 24.9215V24.8899C29.1875 21.6671 31.5868 18.8416 35.1171 18.8416C38.6519 18.8416 41.0217 21.6315 41.0217 24.856C41.0347 24.8764 41.0347 24.8764 41.0217 24.8899C41.0217 28.1139 38.623 30.9393 35.0859 30.9393C31.559 30.9393 29.1875 28.1505 29.1875 24.9215ZM43.123 30.7439H50.9666V29.5191H44.4383V19.0435H43.123V30.7439ZM57.1638 29.5192C60.0926 29.5192 61.9674 27.5178 61.9674 24.9215V24.8899C61.9674 22.3032 60.0926 20.2594 57.1638 20.2594H54.4453V29.5192H57.1638ZM53.1327 19.0436H57.1647C60.8141 19.0436 63.3273 21.5642 63.3273 24.8559V24.8898C63.3273 28.1865 60.8141 30.7439 57.1647 30.7439H53.1327V19.0436ZM65.8456 30.7439H68.3566V23.1536L71.5825 28.1002H71.6437L74.9115 23.104V30.7439H77.4446V19.0436H74.6927L71.6437 23.9946L68.6004 19.0436H65.8456V30.7439ZM79.3008 25.7245V19.0435H81.8554V25.6591C81.8554 27.5673 82.7937 28.5568 84.3527 28.5568C85.9095 28.5568 86.8558 27.6018 86.8558 25.7477V19.0435H89.4087V25.6404C89.4087 29.1889 87.4374 30.9267 84.3238 30.9267C81.2091 30.9267 79.3008 29.1725 79.3008 25.7245ZM94.5485 30.7439H97.1014V21.409H100.642V19.0435H91.0176V21.409H94.5485V30.7439ZM102.326 25.7245V19.0436H104.87V25.6591C104.87 27.5674 105.825 28.5568 107.381 28.5568C108.942 28.5568 109.879 27.6018 109.879 25.7477V19.0436H112.437V25.6404C112.437 29.1889 110.461 30.9268 107.346 30.9268C104.226 30.9268 102.326 29.1726 102.326 25.7245ZM117.207 25.851L118.751 22.0508L120.292 25.851H117.207ZM112.643 30.7441H115.244L116.302 28.1139H121.209L122.269 30.7441H124.939L119.968 18.9562H117.612L112.643 30.7441ZM126.395 19.0435H128.937V28.4016H134.723V30.7439H126.395V19.0435Z" fill="#66696D"/>
<path fill-rule="evenodd" clip-rule="evenodd" d="M8.81998 17.1147C8.81998 17.7841 9.16695 18.3553 9.69363 18.6782C8.68279 18.7577 9.17092 20.0502 9.91304 20.0378C9.98333 20.7163 10.0236 22.2735 10.0236 23.128C10.0236 26.3102 9.59102 30.1889 8.5127 31.2421C7.73317 31.3075 6.81587 31.1963 5.85491 30.9407C4.82649 30.6613 3.94547 30.2397 3.2986 29.7616C2.51396 29.8637 1.83364 30.0692 1.30469 30.3446C2.49639 31.3792 3.81508 32.354 5.27607 33.1983C6.97744 34.1911 8.73324 34.9649 10.4556 35.5H10.7748C12.5056 34.9649 14.2507 34.1911 15.9588 33.1983C17.4198 32.354 18.7397 31.3792 19.9189 30.3446C19.4024 30.0754 18.7221 29.8637 17.9403 29.7616C17.277 30.2397 16.4112 30.6613 15.3743 30.9407C14.4173 31.1963 13.4927 31.3075 12.7239 31.2421C11.6411 30.1889 11.2056 26.3102 11.2056 23.128C11.2056 22.2735 11.2431 20.7163 11.323 20.0378C12.0515 20.0502 12.5521 18.7577 11.535 18.6782C12.068 18.3553 12.4251 17.7841 12.4251 17.1147C12.4251 16.1084 11.6155 15.2905 10.6132 15.2905C9.61766 15.2905 8.81998 16.1084 8.81998 17.1147ZM9.78516 17.1147C9.78516 16.6467 10.1508 16.2686 10.6123 16.2686C11.0778 16.2686 11.4463 16.6467 11.4463 17.1147C11.4463 17.5803 11.0778 17.9568 10.6123 17.9568C10.1542 17.9568 9.78516 17.5803 9.78516 17.1147ZM5.28384 14.5336C3.52237 15.5529 1.94516 16.7388 0.595849 18.0268C0.301043 19.2815 0.100914 20.6208 0 21.9997V25.6605C0.0754024 26.7272 0.215435 27.7584 0.404792 28.7552C0.9139 28.4369 1.42754 27.9498 1.9049 27.3176C1.8193 26.502 1.89923 25.5329 2.17306 24.491C2.42932 23.5214 2.79046 22.6702 3.2338 22.0172C4.42323 21.6729 7.0317 22.6702 9.43834 23.9131C9.43834 23.6427 9.44911 23.3949 9.44911 23.128C9.44911 22.9157 9.44911 22.6612 9.43834 22.3841C7.41041 21.0058 5.61266 19.4355 5.34507 18.3327C5.68409 17.6283 6.23232 16.8742 6.93532 16.1687C7.68934 15.4051 8.48475 14.8598 9.23198 14.5223C9.52678 13.7897 9.69459 13.0932 9.715 12.5C8.2336 13.0215 6.74029 13.6836 5.28384 14.5336ZM11.859 25.2885C12.5042 25.6785 13.1964 26.1261 13.5604 26.3987C13.1816 27.0269 14.0434 28.114 14.616 27.2645C14.6296 27.8848 14.9482 28.4904 15.5169 28.824C15.7368 28.9448 15.9772 29.03 16.2068 29.0503H16.6337C17.1751 28.9832 17.6865 28.671 17.9881 28.154C18.4927 27.2871 18.1922 26.1752 17.3276 25.6638C16.7511 25.3308 16.081 25.3478 15.5463 25.6514C15.9812 24.7275 14.6239 24.5152 14.2719 25.1638C13.7072 24.9171 12.5597 24.3036 11.7949 23.865C11.8074 24.3391 11.8312 24.8149 11.859 25.2885ZM16.0109 27.9679C15.6078 27.7438 15.4695 27.2257 15.7042 26.8261C15.9259 26.4225 16.4395 26.2831 16.837 26.5123C17.244 26.7476 17.3773 27.2567 17.1488 27.6699C16.9906 27.9312 16.7139 28.0892 16.4259 28.0892C16.2768 28.0892 16.1391 28.0452 16.0109 27.9679ZM12.0307 14.5224C12.7779 14.8599 13.5795 15.4051 14.3324 16.1688C15.0383 16.8799 15.5893 17.6284 15.9255 18.3328C15.6534 19.4356 13.8335 21.0149 11.7954 22.3999C11.7908 22.6703 11.7908 22.9248 11.7908 23.128C11.7908 23.395 11.7908 23.6563 11.7954 23.9289C14.2134 22.6703 16.8343 21.673 18.0271 22.0173C18.4637 22.6703 18.8362 23.5214 19.0935 24.4911C19.3628 25.533 19.4416 26.5021 19.356 27.3177C19.8379 27.9498 20.3646 28.4369 20.8573 28.7553C21.1521 27.2031 21.3267 25.5607 21.3267 23.8652C21.3267 21.8124 21.0999 19.8437 20.6747 18.0268C19.3203 16.7388 17.7465 15.553 15.9816 14.5337C14.524 13.6837 13.0234 13.0216 11.5527 12.5001C11.5714 13.0933 11.7353 13.7898 12.0307 14.5224ZM6.99296 25.1638C6.63976 24.5153 5.28308 24.7275 5.72302 25.6514C5.18387 25.3478 4.50638 25.3308 3.93548 25.6638C3.07657 26.1679 2.77836 27.2871 3.27046 28.1541C3.77617 29.03 4.87829 29.3162 5.73776 28.824C6.30867 28.4904 6.63749 27.8848 6.63976 27.2645C7.2186 28.114 8.08204 27.0269 7.70446 26.3987C8.0537 26.1272 8.74536 25.6909 9.37352 25.3049C9.40584 24.8342 9.42738 24.3538 9.43759 23.8713C8.67733 24.3059 7.54459 24.925 6.99296 25.1638ZM4.11264 27.6699C3.88417 27.2567 4.01966 26.7476 4.42446 26.5123C4.82868 26.2831 5.32872 26.4225 5.56229 26.8261C5.79304 27.2257 5.653 27.7438 5.25672 27.9679C5.12179 28.0452 4.98289 28.0892 4.84002 28.0892C4.55315 28.0892 4.27592 27.9312 4.11264 27.6699Z" fill="#66696D"/>
<path fill-rule="evenodd" clip-rule="evenodd" d="M249.672 10.2267V10.8526C250.762 9.74792 252.161 9.03459 253.761 9.03181C257.782 9.03181 260.168 11.8416 260.168 15.617V23.0573C260.168 24.6618 257.723 24.6618 257.723 23.0573V15.617C257.723 12.9909 256.259 11.4385 253.763 11.4385C251.398 11.4424 249.713 13.0942 249.672 15.6006V15.6797L249.671 23.0575C249.671 24.6618 247.226 24.6616 247.227 23.0573L247.228 10.2264C247.228 8.62213 249.673 8.62241 249.672 10.2267Z" fill="#66696D"/>
<path fill-rule="evenodd" clip-rule="evenodd" d="M245.68 16.5015L245.68 16.3494C245.607 12.8527 243.393 9.03181 238.845 9.03181C234.834 9.03181 231.981 12.191 231.814 16.1096C231.81 16.1996 231.806 16.4327 231.803 16.6392C231.802 16.7469 231.801 16.9151 231.801 16.9151C231.893 21.3547 235.187 24.2913 239.111 24.2913C241.29 24.2913 243.065 23.4134 244.357 22.1749C245.525 21.0555 243.819 19.3313 242.652 20.4507C241.758 21.3075 240.575 21.8846 239.111 21.8846C236.792 21.8846 234.765 20.3827 234.33 17.8008H244.458C245.293 17.8008 245.7 17.1683 245.679 16.5515L245.68 16.5015ZM243.121 15.3943L234.344 15.3941C234.771 13.0134 236.587 11.4385 238.843 11.4385C241.191 11.4385 242.709 13.1686 243.121 15.3943Z" fill="#66696D"/>
<path fill-rule="evenodd" clip-rule="evenodd" d="M226.107 23.3398C226.061 23.5491 225.955 23.7329 225.81 23.8811C225.564 24.1728 225.227 24.2932 224.893 24.2827C224.559 24.2932 224.222 24.1728 223.976 23.8811C223.832 23.7329 223.725 23.5491 223.679 23.3401L218.109 10.7338C217.459 9.26246 219.701 8.30265 220.351 9.77373L224.893 20.0524L229.433 9.77401C230.083 8.30265 232.325 9.26218 231.675 10.7335L226.107 23.3398Z" fill="#66696D"/>
<path fill-rule="evenodd" clip-rule="evenodd" d="M217.782 16.5015V16.3494C217.708 12.8527 215.495 9.03181 210.947 9.03181C206.936 9.03181 204.082 12.191 203.915 16.1096C203.912 16.1996 203.906 16.4327 203.904 16.6392C203.903 16.7469 203.902 16.9151 203.902 16.9151C203.994 21.3547 207.288 24.2913 211.212 24.2913C213.391 24.2913 215.167 23.4134 216.459 22.1749C217.627 21.0555 215.921 19.3313 214.753 20.4507C213.859 21.3075 212.677 21.8846 211.212 21.8846C208.893 21.8846 206.867 20.3827 206.432 17.8008H216.559C217.395 17.8008 217.802 17.1683 217.781 16.5515L217.782 16.5015ZM215.223 15.3943L206.445 15.3941C206.873 13.0134 208.689 11.4385 210.944 11.4385C213.293 11.4385 214.811 13.1686 215.223 15.3943Z" fill="#66696D"/>
<path fill-rule="evenodd" clip-rule="evenodd" d="M199.95 12.817C199.167 11.8569 198.028 11.4528 196.851 11.4528C194.763 11.4528 194 12.4931 194 13.2605C194 14.5986 196.494 15.0996 197.424 15.3617C199.767 15.9942 202.62 16.8963 202.62 19.8543C202.62 22.7184 199.855 24.2764 197.153 24.2764C195.357 24.2764 193.487 23.6199 192.16 22.2621C191.03 21.1061 192.791 19.4374 193.922 20.5934C194.727 21.4175 195.929 21.8699 197.153 21.8699C199.235 21.8699 200.176 20.7697 200.176 19.8543C200.176 18.4295 197.776 17.9519 196.758 17.6771C194.472 17.0331 191.555 16.1866 191.555 13.2605C191.555 10.6137 194.05 9.04602 196.851 9.04602C198.591 9.04602 200.507 9.65721 201.856 11.3104C202.876 12.5613 200.97 14.0679 199.95 12.817Z" fill="#66696D"/>
<path fill-rule="evenodd" clip-rule="evenodd" d="M179.637 12.2352C180.648 10.5387 182.161 9.16063 184.478 9.01186C184.788 8.99215 185.1 8.99715 185.411 9.02602C187.386 9.20782 189.038 10.4474 189.481 12.2821C189.636 12.8375 189.683 13.4498 189.586 14.0812C189.386 15.2068 188.782 16.2396 187.696 17.4128C187.162 18.092 186.472 18.7054 185.844 19.2963L183.477 21.561H188.979C190.598 21.561 190.598 23.9713 188.979 23.9713H180.467C179.1 23.9713 178.64 22.8402 179.624 21.8988L184.169 17.5508C184.714 17.0384 185.385 16.4785 185.827 15.8748C186.766 14.8687 187.097 14.1931 187.189 13.6915C187.229 13.4115 187.199 13.1287 187.129 12.8847C186.971 12.2058 186.305 11.5288 185.186 11.4258C185.001 11.4089 184.817 11.4055 184.634 11.4172C183.383 11.4974 182.487 12.1877 181.728 13.4617C180.904 14.8451 178.813 13.6185 179.637 12.2352Z" fill="#66696D"/>
<path fill-rule="evenodd" clip-rule="evenodd" d="M169.353 13.4617C170.112 12.1877 171.009 11.4974 172.259 11.4172C172.443 11.4055 172.626 11.4089 172.812 11.4258C173.929 11.5288 174.596 12.2058 174.754 12.8847C174.824 13.1289 174.855 13.4118 174.814 13.6913C174.722 14.1931 174.391 14.8687 173.452 15.8748C173.01 16.4783 172.339 17.0384 171.794 17.5508L167.249 21.8988C166.265 22.8402 166.725 23.9713 168.092 23.9713H176.604C178.223 23.9713 178.223 21.561 176.604 21.561H171.102L173.469 19.2963C174.097 18.7054 174.787 18.092 175.321 17.4128C176.407 16.2396 177.011 15.2068 177.211 14.0812C177.308 13.4492 177.261 12.8372 177.106 12.2821C176.663 10.4471 175.011 9.20782 173.036 9.02602C172.725 8.99715 172.413 8.99215 172.103 9.01186C169.786 9.16063 168.273 10.5387 167.263 12.2352C166.438 13.6185 168.53 14.8451 169.353 13.4617Z" fill="#66696D"/>
<path fill-rule="evenodd" clip-rule="evenodd" d="M213.545 33.7977V33.7822C213.545 32.4771 212.598 31.4082 211.294 31.4082C209.99 31.4082 209.062 32.4576 209.062 33.7655V33.7822C209.062 35.0911 210.009 36.155 211.309 36.155C212.614 36.155 213.545 35.1045 213.545 33.7977ZM208.395 33.7978V33.7823C208.395 32.1974 209.574 30.8079 211.31 30.8079C213.049 30.8079 214.214 32.1799 214.214 33.7656C214.22 33.7756 214.22 33.7756 214.214 33.7823C214.214 35.3677 213.034 36.7572 211.295 36.7572C209.561 36.7572 208.395 35.3858 208.395 33.7978ZM215.25 36.6611H219.107V36.0588H215.897V30.9072H215.25V36.6611ZM222.153 36.0588C223.593 36.0588 224.515 35.0746 224.515 33.7978V33.7823C224.515 32.5102 223.593 31.5052 222.153 31.5052H220.816V36.0588H222.153ZM220.172 30.9072H222.155C223.949 30.9072 225.185 32.1468 225.185 33.7655V33.7822C225.185 35.4034 223.949 36.6611 222.155 36.6611H220.172V30.9072ZM226.422 36.6611H227.657V32.9284L229.243 35.361H229.273L230.88 32.904V36.6611H232.126V30.9072H230.772L229.273 33.342L227.777 30.9072H226.422V36.6611ZM233.043 34.1927V30.9072H234.299V34.1605C234.299 35.0989 234.761 35.5855 235.527 35.5855C236.293 35.5855 236.758 35.1159 236.758 34.2041V30.9072H238.014V34.1513C238.014 35.8964 237.044 36.751 235.513 36.751C233.981 36.751 233.043 35.8883 233.043 34.1927ZM240.537 36.6611H241.792V32.0705H243.534V30.9072H238.801V32.0705H240.537V36.6611ZM244.363 34.1927V30.9072H245.614V34.1605C245.614 35.099 246.084 35.5855 246.849 35.5855C247.617 35.5855 248.077 35.1159 248.077 34.2041V30.9072H249.335V34.1514C249.335 35.8964 248.364 36.751 246.832 36.751C245.298 36.751 244.363 35.8883 244.363 34.1927ZM251.68 34.2549L252.439 32.3861L253.197 34.2549H251.68ZM249.43 36.6611H250.709L251.229 35.3677H253.642L254.163 36.6611H255.477L253.032 30.8643H251.873L249.43 36.6611ZM256.199 30.9072H257.449V35.5092H260.295V36.6611H256.199V30.9072Z" fill="#66696D"/>
<path fill-rule="evenodd" clip-rule="evenodd" d="M170.792 31.5443H167.362V33.5855H170.429V34.1723H167.362V36.6612H166.723V30.9487H170.792V31.5443ZM176.715 36.6612L174.976 34.3271C175.866 34.1645 176.513 33.6097 176.513 32.6543C176.513 31.6265 175.712 30.9487 174.467 30.9487H172.031V36.6612H172.671V34.4415H174.289L175.931 36.6612H176.715ZM175.86 32.6789C175.86 33.4209 175.253 33.8627 174.403 33.8627H172.664V31.5443H174.412C175.325 31.5443 175.86 31.9692 175.86 32.6789ZM180.505 36.7594C178.782 36.7594 177.625 35.3963 177.625 33.8131C177.625 32.2313 178.798 30.851 180.521 30.851C182.244 30.851 183.402 32.2135 183.402 33.7979C183.402 35.3808 182.228 36.7594 180.505 36.7594ZM180.502 31.4469C179.209 31.4469 178.285 32.4916 178.285 33.7978C178.285 35.1029 179.224 36.1646 180.519 36.1646C181.813 36.1646 182.735 35.1193 182.735 33.8131C182.735 32.5074 181.797 31.4469 180.502 31.4469ZM189.531 32.0342V36.6612H190.17V30.9487H189.524L187.459 34.0662L185.396 30.9487H184.75V36.6612H185.373V32.0425L187.436 35.0946H187.468L189.531 32.0342Z" fill="#66696D"/>
<path fill-rule="evenodd" clip-rule="evenodd" d="M198.383 29.9587C198.383 30.2879 198.554 30.5688 198.813 30.7275C198.316 30.7667 198.556 31.4023 198.921 31.3962C198.955 31.7298 198.975 32.4956 198.975 32.9158C198.975 34.4807 198.762 36.3881 198.232 36.9061C197.849 36.9383 197.398 36.8836 196.925 36.7578C196.419 36.6204 195.986 36.4131 195.668 36.178C195.282 36.2283 194.948 36.3293 194.688 36.4647C195.274 36.9735 195.922 37.4529 196.64 37.8681C197.477 38.3563 198.34 38.7369 199.187 39H199.344C200.196 38.7369 201.054 38.3563 201.894 37.8681C202.612 37.4529 203.261 36.9735 203.841 36.4647C203.587 36.3323 203.253 36.2283 202.868 36.178C202.542 36.4131 202.116 36.6204 201.606 36.7578C201.136 36.8836 200.681 36.9383 200.303 36.9061C199.77 36.3881 199.556 34.4807 199.556 32.9158C199.556 32.4956 199.575 31.7298 199.614 31.3962C199.972 31.4023 200.218 30.7667 199.718 30.7275C199.98 30.5688 200.156 30.2879 200.156 29.9587C200.156 29.4638 199.758 29.0616 199.265 29.0616C198.775 29.0616 198.383 29.4638 198.383 29.9587ZM198.855 29.9587C198.855 29.7286 199.035 29.5426 199.262 29.5426C199.491 29.5426 199.672 29.7286 199.672 29.9587C199.672 30.1876 199.491 30.3728 199.262 30.3728C199.037 30.3728 198.855 30.1876 198.855 29.9587ZM196.641 28.6894C195.775 29.1906 194.999 29.7738 194.336 30.4072C194.191 31.0242 194.093 31.6829 194.043 32.361V34.1612C194.08 34.6858 194.149 35.1929 194.242 35.6831C194.492 35.5265 194.745 35.287 194.98 34.9761C194.938 34.5751 194.977 34.0985 195.112 33.5861C195.238 33.1093 195.415 32.6907 195.633 32.3696C196.218 32.2002 197.501 32.6907 198.684 33.3019C198.684 33.1689 198.69 33.0471 198.69 32.9158C198.69 32.8114 198.69 32.6863 198.684 32.55C197.687 31.8722 196.803 31.1 196.671 30.5576C196.838 30.2112 197.108 29.8404 197.453 29.4935C197.824 29.1179 198.215 28.8498 198.583 28.6838C198.728 28.3235 198.81 27.981 198.82 27.6893C198.092 27.9458 197.358 28.2714 196.641 28.6894ZM199.875 33.9783C200.193 34.1701 200.533 34.3902 200.712 34.5243C200.526 34.8332 200.95 35.3678 201.231 34.9501C201.238 35.2551 201.395 35.5529 201.674 35.717C201.782 35.7764 201.901 35.8183 202.014 35.8283H202.223C202.49 35.7952 202.741 35.6417 202.889 35.3875C203.138 34.9612 202.99 34.4144 202.565 34.1629C202.281 33.9991 201.952 34.0075 201.689 34.1568C201.903 33.7024 201.235 33.5981 201.062 33.917C200.784 33.7957 200.22 33.494 199.844 33.2783C199.85 33.5115 199.862 33.7454 199.875 33.9783ZM201.918 35.2959C201.72 35.1857 201.652 34.9309 201.767 34.7344C201.876 34.5359 202.129 34.4674 202.324 34.5801C202.524 34.6958 202.59 34.9462 202.478 35.1494C202.4 35.2779 202.264 35.3556 202.122 35.3556C202.049 35.3556 201.981 35.3339 201.918 35.2959ZM199.958 28.6838C200.325 28.8498 200.719 29.118 201.09 29.4935C201.437 29.8432 201.708 30.2113 201.873 30.5577C201.739 31.1 200.844 31.8766 199.842 32.5578C199.84 32.6907 199.84 32.8159 199.84 32.9158C199.84 33.0471 199.84 33.1756 199.842 33.3097C201.031 32.6907 202.32 32.2003 202.906 32.3696C203.121 32.6907 203.304 33.1093 203.431 33.5861C203.563 34.0985 203.602 34.5751 203.56 34.9762C203.797 35.287 204.056 35.5266 204.298 35.6831C204.443 34.9198 204.529 34.1121 204.529 33.2783C204.529 32.2688 204.417 31.3007 204.208 30.4072C203.542 29.7738 202.768 29.1907 201.901 28.6894C201.184 28.2714 200.446 27.9458 199.723 27.6893C199.732 27.9811 199.812 28.3236 199.958 28.6838ZM197.482 33.9169C197.309 33.598 196.642 33.7024 196.858 34.1568C196.593 34.0074 196.26 33.9991 195.979 34.1629C195.556 34.4107 195.41 34.9611 195.652 35.3875C195.901 35.8182 196.442 35.959 196.865 35.7169C197.146 35.5529 197.308 35.2551 197.309 34.95C197.593 35.3678 198.018 34.8332 197.832 34.5242C198.004 34.3907 198.344 34.1762 198.653 33.9863C198.669 33.7548 198.679 33.5186 198.685 33.2813C198.311 33.495 197.754 33.7995 197.482 33.9169ZM196.062 35.1494C195.95 34.9462 196.017 34.6958 196.216 34.5801C196.414 34.4674 196.66 34.5359 196.775 34.7344C196.889 34.9309 196.82 35.1857 196.625 35.2959C196.558 35.3339 196.49 35.3556 196.42 35.3556C196.279 35.3556 196.143 35.2779 196.062 35.1494Z" fill="#66696D"/>
<path d="M312.293 44C323.339 44 332.293 35.0457 332.293 24C332.293 12.9543 323.339 4 312.293 4C301.247 4 292.293 12.9543 292.293 24C292.293 35.0457 301.247 44 312.293 44Z" fill="#66696D"/>
<path d="M327.789 18.3648C328.429 20.1228 328.779 22.0218 328.779 24.0008C328.779 25.9798 328.429 27.8788 327.789 29.6368L330 30.4418C330.732 28.4318 331.131 26.2628 331.131 23.9998C331.131 21.7368 330.732 19.5678 330 17.5578L327.789 18.3648ZM295.245 31.9598C298.244 38.3778 304.757 42.8248 312.308 42.8248C319.86 42.8248 326.373 38.3778 329.371 31.9598L327.238 30.9648C324.614 36.5808 318.915 40.4718 312.308 40.4718C305.7 40.4718 300.002 36.5808 297.378 30.9648L295.245 31.9598ZM296.827 18.3648L294.615 17.5598C293.883 19.5698 293.484 21.7388 293.484 24.0018C293.484 26.2648 293.883 28.4338 294.615 30.4438L296.827 29.6388C296.187 27.8808 295.837 25.9818 295.837 24.0028C295.837 22.0238 296.187 20.1228 296.827 18.3648ZM329.371 16.0418C326.373 9.62376 319.86 5.17676 312.308 5.17676C304.756 5.17676 298.243 9.62376 295.245 16.0418L297.378 17.0368C300.002 11.4208 305.701 7.52976 312.308 7.52976C318.916 7.52976 324.615 11.4208 327.238 17.0368L329.371 16.0418Z" fill="white"/>
<path d="M308.699 26.083C308.342 26.083 308.029 26.04 307.601 25.94V22.064C307.955 21.983 308.306 21.919 308.699 21.919C309.768 21.919 310.282 22.404 310.282 24.001C310.282 25.598 309.769 26.083 308.699 26.083ZM309.013 20.236C308.543 20.236 308.038 20.319 307.601 20.413V16.472L305.633 16.686V27.267C306.446 27.524 307.501 27.766 308.542 27.766C310.909 27.766 312.307 26.967 312.307 24.001C312.307 21.035 310.91 20.236 309.013 20.236Z" fill="white"/>
<path d="M316.625 23.1305C315.784 23.1165 315.256 23.1015 315.256 22.6455C315.256 22.0465 315.612 21.9185 316.696 21.9185C317.352 21.9185 318.279 22.0465 318.863 22.1895L318.706 20.5635C317.95 20.3355 317.109 20.2355 316.553 20.2355C314.186 20.2355 313.273 21.0915 313.273 22.7025C313.273 24.2565 314.228 24.6565 315.84 24.6845C316.881 24.6985 317.423 24.6705 317.423 25.3545C317.423 25.9535 316.952 26.0815 315.94 26.0815C314.813 26.0815 314.015 25.9105 313.43 25.7245L313.587 27.3505C314.343 27.6215 315.056 27.7645 316.097 27.7645C318.621 27.7645 319.405 26.9085 319.405 25.3685C319.406 23.4305 318.137 23.1595 316.625 23.1305Z" fill="white"/>
<path d="M302.339 26.0255C302.082 26.0685 301.74 26.1255 301.383 26.1255C300.527 26.1255 300.172 25.8545 300.172 25.2695C300.172 24.6565 300.514 24.5565 301.227 24.5135L302.339 24.4425V26.0255ZM301.113 20.2355C300.486 20.2355 299.643 20.3355 298.887 20.5635L298.731 22.1895C299.358 22.0465 300.284 21.9185 300.897 21.9185C301.924 21.9185 302.338 22.0045 302.338 22.8315V23.0595L300.969 23.1305C299.457 23.2155 298.188 23.4725 298.188 25.3695C298.188 26.9095 298.972 27.7655 301.339 27.7655C302.437 27.7655 303.492 27.5235 304.305 27.2665V22.7035C304.307 21.0915 303.409 20.2355 301.113 20.2355Z" fill="white"/>
<path d="M324.46 26.0255C324.203 26.0685 323.861 26.1255 323.505 26.1255C322.649 26.1255 322.293 25.8545 322.293 25.2695C322.293 24.6565 322.635 24.5565 323.348 24.5135L324.46 24.4425V26.0255ZM323.234 20.2355C322.607 20.2355 321.765 20.3355 321.009 20.5635L320.852 22.1895C321.479 22.0465 322.406 21.9185 323.019 21.9185C324.046 21.9185 324.459 22.0045 324.459 22.8315V23.0595L323.09 23.1305C321.578 23.2155 320.309 23.4295 320.309 25.3695C320.309 26.9095 321.093 27.7655 323.46 27.7655C324.558 27.7655 325.613 27.5235 326.426 27.2665V22.7035C326.428 21.0915 325.529 20.2355 323.234 20.2355Z" fill="white"/>
<path d="M367.613 17.3285H380.956V30.6713H367.613V17.3285Z" fill="white"/>
<path d="M382.791 23.9998V23.9986C382.791 22.6827 382.845 21.5069 383.82 19.4402C384.103 18.8408 384.726 17.9603 383.809 16.9389C383.065 16.1962 382.215 16.3198 381.645 16.646C381.972 16.0753 382.095 15.2256 381.352 14.4823C380.331 13.5649 379.45 14.1879 378.851 14.4702C376.783 15.4462 375.611 15.4991 374.292 15.4991H374.291C372.974 15.4991 371.799 15.4459 369.733 14.4702C369.133 14.1876 368.253 13.5646 367.232 14.4823C366.489 15.2253 366.612 16.0756 366.938 16.6457C366.368 16.3189 365.519 16.1965 364.775 16.9392C363.858 17.9606 364.48 18.8411 364.763 19.4402C365.738 21.5081 365.792 22.6812 365.792 23.9995V24.0001C365.792 25.3174 365.738 26.4932 364.763 28.5599C364.48 29.159 363.858 30.0399 364.775 31.0606C365.518 31.8039 366.368 31.6797 366.938 31.3541C366.612 31.9245 366.488 32.7751 367.232 33.5169C368.253 34.4359 369.133 33.8126 369.732 33.529C371.8 32.5539 372.972 32.5004 374.292 32.5004C375.609 32.5004 376.784 32.5542 378.85 33.529C379.45 33.8126 380.331 34.4359 381.352 33.5169C382.094 32.7751 381.971 31.9242 381.644 31.3541C382.215 31.6803 383.065 31.8048 383.809 31.0606C384.726 30.0395 384.103 29.159 383.82 28.5605C382.845 26.4914 382.791 25.3186 382.791 23.9998ZM380.53 30.2542L375.687 26.1898C375.687 26.1898 375.032 25.5516 374.292 25.5516C373.551 25.5516 372.896 26.1898 372.896 26.1898L368.054 30.2536L368.037 30.2387L372.102 25.396C372.102 25.396 372.741 24.7403 372.741 23.9989C372.741 23.2592 372.102 22.6038 372.102 22.6038L368.037 17.7608L368.053 17.7429L372.896 21.8092C372.896 21.8092 373.551 22.4479 374.292 22.4479C375.032 22.4479 375.687 21.8092 375.687 21.8092L380.528 17.746L380.546 17.7617L376.482 22.6038C376.482 22.6038 375.842 23.2592 375.842 23.9995C375.842 24.7403 376.482 25.396 376.482 25.396L380.546 30.2372L380.53 30.2542Z" fill="#66696D"/>
<path d="M431.554 15.1545L431.726 15.1527L431.789 18.326L431.596 18.3227C431.281 17.0341 430.039 15.8132 427.555 15.6841C424.612 15.5317 423.338 17.2843 423.324 18.9399C423.306 21.1474 425.023 21.5999 427.569 22.2196C428.772 22.514 433.217 23.0935 432.862 28.0886C432.612 31.5784 429.6 33.2388 425.335 33.1049C425.335 33.1049 423.563 33.0456 421.088 32.3592C420.626 32.2307 420.51 32.3852 420.321 32.7252L420.122 32.7346L420.128 29.3131L420.325 29.324C420.426 29.6704 420.449 30.3143 421.075 30.8632C421.538 31.2658 422.608 32.2618 424.963 32.2875C427.281 32.3147 429.197 31.3378 429.456 28.7467C429.525 28.0466 429.447 26.4491 427.89 25.72C426.67 25.1484 423.282 24.7708 421.636 23.3335C421.636 23.3335 419.691 21.9763 420 19.4438C420.434 15.8648 423.417 14.9698 426.102 14.9142C426.102 14.9142 428.504 14.8918 430.415 15.3848C430.415 15.3848 430.886 15.5133 431.279 15.3646C431.432 15.3129 431.507 15.2143 431.554 15.1545ZM414.776 23.3933C419.136 24.4749 419.4 27.6213 419.337 28.5051C419.141 32.4471 415.8 32.8984 414.453 32.8984H404.166L404.177 32.698C404.924 32.5983 405.483 32.1869 405.483 30.8738L405.547 17.3046C405.563 15.8292 405.174 15.3812 404.358 15.2857L404.343 15.1001H412.122C413.549 15.1001 417.845 14.8141 418.211 18.7679C418.504 21.9315 415.033 23.2549 414.776 23.3933ZM415.922 28.532C416.001 24.7094 413.196 23.6959 410.291 23.5366C410.233 23.5333 410.254 23.3867 410.299 23.3809C411.242 23.3444 414.996 22.9088 414.841 19.3265C414.688 15.8337 412.038 15.7551 411.069 15.7424C410.282 15.7328 410.109 15.7328 409.778 15.7473C409.215 15.7711 409.075 15.8101 409.077 16.4244C409.077 16.502 408.952 22.7138 408.881 27.0796C408.843 29.4543 408.838 31.284 408.838 31.284C408.845 31.7156 408.792 32.1594 409.864 32.2095C410.97 32.2633 412.397 32.3078 413.394 32.0965C414.306 31.8997 415.865 31.2335 415.922 28.532ZM395.423 15.1004C399.127 15.0823 404.004 17.6244 403.987 23.9743C403.971 29.4951 399.989 32.8966 396.301 32.8966L386.953 32.8987L386.965 32.701C387.493 32.611 388.08 32.2815 388.178 31.9311C388.487 30.5993 388.419 18.4278 388.229 16.4216C388.169 15.7953 387.676 15.3909 387.07 15.2923L387.058 15.1004C387.058 15.1004 394.593 15.1037 395.423 15.1004ZM397.118 31.7455C398.774 31.1494 400.829 28.3186 400.49 23.8582C400.164 19.542 398.516 16.1535 394.137 15.8352C394.137 15.8352 393.307 15.7757 392.612 15.7708C391.868 15.7666 391.705 15.7427 391.652 16.5362C391.553 18.0276 391.524 29.6317 391.622 31.3087C391.635 31.5388 391.66 32.0904 392.619 32.1838C394.363 32.3537 395.81 32.2195 397.118 31.7455Z" fill="#66696D"/>
<path fill-rule="evenodd" clip-rule="evenodd" d="M494.073 9C501.985 9 510.118 12.3903 510.118 18.1184C510.118 23.8466 501.985 27.2286 494.073 27.2286C486.153 27.2286 478.02 23.8466 478.02 18.1184C478.02 12.3903 486.153 9 494.073 9Z" fill="white"/>
<path fill-rule="evenodd" clip-rule="evenodd" d="M504.876 13.0407L492.435 19.4883L490.286 18.1696L499.319 13.52C497.178 12.6293 493.848 12.6983 493.848 12.6983C483.71 13.1775 483.959 18.1696 483.959 18.1696C483.959 19.3516 485.08 23.0927 493.848 23.5374C504.456 23.1949 504.944 17.8093 503.539 16.2253L506.844 14.4784C508.642 16.1218 508.642 18.1684 508.642 18.1684C508.676 20.8309 505.158 25.4294 493.846 25.7623C482.553 25.1202 479.522 20.8654 479.489 18.1684C479.454 15.5059 482.725 10.8396 493.846 10.4627C501.323 10.3949 504.876 13.0407 504.876 13.0407Z" fill="#66696D"/>
<path fill-rule="evenodd" clip-rule="evenodd" d="M523.241 38.5125C523.241 38.7182 523.053 38.8894 522.829 38.8894H520.158C520.124 38.8894 520.089 38.8811 520.056 38.8728C519.997 38.8644 519.944 38.8383 519.893 38.8038C519.867 38.7776 515.364 34.2743 515.364 34.2743V38.5125C515.364 38.7182 515.176 38.8894 514.944 38.8894H512.281C512.051 38.8894 511.862 38.7182 511.862 38.5125V30.4987C511.862 30.293 512.049 30.1301 512.281 30.1301H514.952C515.064 30.1301 515.166 30.1563 515.235 30.2324L519.739 34.7357V30.4987C519.739 30.293 519.926 30.1301 520.158 30.1301H522.829C523.06 30.1301 523.241 30.293 523.241 30.4987V38.5125ZM504.987 32.066V33.4443C504.987 33.5465 505.081 33.6322 505.201 33.6322H508.952C509.182 33.6322 509.371 33.7951 509.371 34.0008V35.0199C509.371 35.2256 509.184 35.3885 508.952 35.3885H505.201C505.081 35.3885 504.987 35.4658 504.987 35.5681V36.9463C504.987 37.0486 505.081 37.1342 505.201 37.1342H509.825C510.055 37.1342 510.244 37.3055 510.244 37.5112V38.5125C510.244 38.7182 510.056 38.8894 509.825 38.8894H501.905C501.674 38.8894 501.485 38.7182 501.485 38.5125V30.4987C501.485 30.293 501.673 30.1301 501.905 30.1301H509.825C510.055 30.1301 510.244 30.293 510.244 30.4987V31.5C510.244 31.7057 510.056 31.8853 509.825 31.8853H505.201C505.081 31.8853 504.987 31.9626 504.987 32.066ZM496.254 32.468C496.254 32.2801 496.074 32.0993 495.681 31.9626C495.295 31.8342 494.653 31.7652 494.071 31.7652C493.48 31.7652 492.837 31.8342 492.452 31.9626C492.059 32.0993 491.887 32.2789 491.887 32.468V36.5432C491.887 36.7406 492.059 36.9202 492.452 37.0569C492.837 37.1854 493.48 37.2543 494.071 37.2543C494.653 37.2543 495.295 37.1854 495.681 37.0569C496.074 36.9202 496.254 36.7406 496.254 36.5432V35.7037C496.254 35.5919 496.152 35.4979 496.023 35.4979H494.517C494.268 35.4979 494.072 35.3184 494.072 35.096V34.1542C494.072 33.9318 494.26 33.7523 494.508 33.7523H499.303C499.551 33.7523 499.757 33.9318 499.757 34.1542V36.8167C499.757 38.3495 496.683 39 494.072 39C491.452 39 488.378 38.3495 488.378 36.8167V32.1933C488.378 30.6688 491.452 30.01 494.072 30.01C496.683 30.01 499.757 30.6688 499.757 32.1933V32.4668C499.757 32.6892 499.551 32.8782 499.303 32.8782H496.699C496.45 32.8782 496.254 32.7153 496.254 32.4929V32.468ZM486.638 38.5125C486.638 38.7182 486.451 38.8894 486.219 38.8894H483.556C483.522 38.8894 483.487 38.8811 483.454 38.8728C483.394 38.8644 483.342 38.8383 483.291 38.8038C483.265 38.7776 478.761 34.2743 478.761 34.2743V38.5125C478.761 38.7182 478.574 38.8894 478.342 38.8894H475.679C475.448 38.8894 475.259 38.7182 475.259 38.5125V30.4987C475.259 30.293 475.447 30.1301 475.679 30.1301H478.35C478.462 30.1301 478.564 30.1563 478.633 30.2324L483.136 34.7357V30.4987C483.136 30.293 483.324 30.1301 483.556 30.1301H486.227C486.458 30.1301 486.638 30.293 486.638 30.4987V38.5125ZM468.385 32.066V33.4443C468.385 33.5465 468.479 33.6322 468.599 33.6322H472.35C472.58 33.6322 472.769 33.7951 472.769 34.0008V35.0199C472.769 35.2256 472.581 35.3885 472.35 35.3885H468.599C468.479 35.3885 468.385 35.4658 468.385 35.5681V36.9463C468.385 37.0486 468.479 37.1342 468.599 37.1342H473.222C473.453 37.1342 473.642 37.3055 473.642 37.5112V38.5125C473.642 38.7182 473.454 38.8894 473.222 38.8894H465.303C465.072 38.8894 464.883 38.7182 464.883 38.5125V30.4987C464.883 30.293 465.071 30.1301 465.303 30.1301H473.222C473.453 30.1301 473.642 30.293 473.642 30.4987V31.5C473.642 31.7057 473.454 31.8853 473.222 31.8853H468.599C468.479 31.8853 468.385 31.9626 468.385 32.066Z" fill="#66696D"/>
</svg>
