<svg width="41" height="40" viewBox="0 0 41 40" fill="none" xmlns="http://www.w3.org/2000/svg">
<path d="M20.2939 40C31.3396 40 40.2939 31.0457 40.2939 20C40.2939 8.95431 31.3396 0 20.2939 0C9.24825 0 0.293945 8.95431 0.293945 20C0.293945 31.0457 9.24825 40 20.2939 40Z" fill="#66696D"/>
<path d="M35.7894 14.3648C36.4294 16.1228 36.7794 18.0218 36.7794 20.0008C36.7794 21.9798 36.4294 23.8788 35.7894 25.6368L38.0004 26.4418C38.7324 24.4318 39.1314 22.2628 39.1314 19.9998C39.1314 17.7368 38.7324 15.5678 38.0004 13.5578L35.7894 14.3648ZM3.24537 27.9598C6.24437 34.3778 12.7574 38.8248 20.3084 38.8248C27.8604 38.8248 34.3734 34.3778 37.3714 27.9598L35.2384 26.9648C32.6144 32.5808 26.9154 36.4718 20.3084 36.4718C13.7004 36.4718 8.00237 32.5808 5.37837 26.9648L3.24537 27.9598ZM4.82737 14.3648L2.61538 13.5598C1.88338 15.5698 1.48438 17.7388 1.48438 20.0018C1.48438 22.2648 1.88338 24.4338 2.61538 26.4438L4.82737 25.6388C4.18737 23.8808 3.83738 21.9818 3.83738 20.0028C3.83738 18.0238 4.18737 16.1228 4.82737 14.3648ZM37.3714 12.0418C34.3734 5.62376 27.8604 1.17676 20.3084 1.17676C12.7564 1.17676 6.24337 5.62376 3.24537 12.0418L5.37837 13.0368C8.00237 7.42076 13.7014 3.52976 20.3084 3.52976C26.9164 3.52976 32.6154 7.42076 35.2384 13.0368L37.3714 12.0418Z" fill="white"/>
<path d="M16.7008 22.0829C16.3438 22.0829 16.0308 22.0399 15.6028 21.9399V18.0639C15.9568 17.9829 16.3078 17.9189 16.7008 17.9189C17.7698 17.9189 18.2838 18.4039 18.2838 20.0009C18.2838 21.5979 17.7708 22.0829 16.7008 22.0829ZM17.0148 16.2359C16.5448 16.2359 16.0398 16.3189 15.6028 16.4129V12.4719L13.6348 12.6859V23.2669C14.4478 23.5239 15.5028 23.7659 16.5438 23.7659C18.9108 23.7659 20.3088 22.9669 20.3088 20.0009C20.3088 17.0349 18.9118 16.2359 17.0148 16.2359Z" fill="white"/>
<path d="M24.6245 19.1306C23.7835 19.1166 23.2555 19.1016 23.2555 18.6456C23.2555 18.0466 23.6115 17.9186 24.6955 17.9186C25.3515 17.9186 26.2785 18.0466 26.8625 18.1896L26.7055 16.5636C25.9495 16.3356 25.1085 16.2356 24.5525 16.2356C22.1855 16.2356 21.2725 17.0916 21.2725 18.7026C21.2725 20.2566 22.2275 20.6566 23.8395 20.6846C24.8805 20.6986 25.4225 20.6706 25.4225 21.3546C25.4225 21.9536 24.9515 22.0816 23.9395 22.0816C22.8125 22.0816 22.0145 21.9106 21.4295 21.7246L21.5865 23.3506C22.3425 23.6216 23.0555 23.7646 24.0965 23.7646C26.6205 23.7646 27.4045 22.9086 27.4045 21.3686C27.4055 19.4306 26.1365 19.1596 24.6245 19.1306Z" fill="white"/>
<path d="M10.3405 22.0256C10.0835 22.0686 9.74145 22.1256 9.38545 22.1256C8.52945 22.1256 8.17345 21.8546 8.17345 21.2696C8.17345 20.6566 8.51545 20.5566 9.22845 20.5136L10.3405 20.4426V22.0256ZM9.11445 16.2356C8.48745 16.2356 7.64545 16.3356 6.88945 16.5636L6.73245 18.1896C7.35945 18.0466 8.28645 17.9186 8.89945 17.9186C9.92645 17.9186 10.3395 18.0046 10.3395 18.8316V19.0596L8.97045 19.1306C7.45845 19.2156 6.18945 19.4726 6.18945 21.3696C6.18945 22.9096 6.97345 23.7656 9.34045 23.7656C10.4385 23.7656 11.4935 23.5236 12.3065 23.2666V18.7036C12.3085 17.0916 11.4105 16.2356 9.11445 16.2356Z" fill="white"/>
<path d="M32.4586 22.0256C32.2016 22.0686 31.8596 22.1256 31.5036 22.1256C30.6476 22.1256 30.2916 21.8546 30.2916 21.2696C30.2916 20.6566 30.6336 20.5566 31.3466 20.5136L32.4586 20.4426V22.0256ZM31.2326 16.2356C30.6056 16.2356 29.7636 16.3356 29.0076 16.5636L28.8506 18.1896C29.4776 18.0466 30.4046 17.9186 31.0176 17.9186C32.0446 17.9186 32.4576 18.0046 32.4576 18.8316V19.0596L31.0886 19.1306C29.5766 19.2156 28.3076 19.4296 28.3076 21.3696C28.3076 22.9096 29.0916 23.7656 31.4586 23.7656C32.5566 23.7656 33.6116 23.5236 34.4246 23.2666V18.7036C34.4266 17.0916 33.5276 16.2356 31.2326 16.2356Z" fill="white"/>
</svg>
