<svg width="69" height="20" viewBox="0 0 69 20" fill="none" xmlns="http://www.w3.org/2000/svg">
<path d="M3.61426 3.32849H16.9565V16.6713H3.61426V3.32849Z" fill="white"/>
<path d="M18.7921 9.99976V9.99855C18.7921 8.68274 18.8456 7.50689 19.8213 5.44022C20.104 4.84081 20.7269 3.96028 19.8095 2.93889C19.0659 2.19619 18.216 2.31983 17.6459 2.64598C17.9732 2.07529 18.0963 1.22559 17.353 0.482287C16.3319 -0.435122 15.4514 0.187867 14.8523 0.470194C12.7841 1.44624 11.6116 1.49914 10.2928 1.49914H10.2922C8.97521 1.49914 7.79967 1.44594 5.73424 0.470194C5.13393 0.187565 4.25371 -0.435424 3.23294 0.482287C2.48996 1.22528 2.61298 2.07559 2.93944 2.64568C2.36935 2.31892 1.51966 2.1965 0.776075 2.93919C-0.141018 3.96058 0.48136 4.84111 0.764286 5.44022C1.73942 7.5081 1.79292 8.68123 1.79292 9.99946V10.0001C1.79292 11.3174 1.73942 12.4932 0.764286 14.5599C0.48136 15.159 -0.14132 16.0399 0.776075 17.0606C1.51906 17.8039 2.36905 17.6797 2.93944 17.3541C2.61268 17.9245 2.48905 18.7751 3.23294 19.5169C4.25432 20.4359 5.13393 19.8126 5.73303 19.529C7.80088 18.5539 8.97339 18.5004 10.2925 18.5004C11.6098 18.5004 12.7847 18.5542 14.8511 19.529C15.4511 19.8126 16.3316 20.4359 17.3527 19.5169C18.0951 18.7751 17.972 17.9242 17.645 17.3541C18.216 17.6803 19.0656 17.8048 19.8095 17.0606C20.7266 16.0395 20.104 15.159 19.8213 14.5605C18.8459 12.4914 18.7921 11.3186 18.7921 9.99976ZM16.5311 16.2542L11.6881 12.1898C11.6881 12.1898 11.0331 11.5516 10.2925 11.5516C9.55224 11.5516 8.89661 12.1898 8.89661 12.1898L4.05542 16.2536L4.03759 16.2387L8.10255 11.396C8.10255 11.396 8.74215 10.7403 8.74215 9.99886C8.74215 9.25919 8.10255 8.60385 8.10255 8.60385L4.03759 3.76078L4.05391 3.74294L8.89722 7.80917C8.89722 7.80917 9.55224 8.44788 10.2928 8.44788C11.0331 8.44788 11.6884 7.80917 11.6884 7.80917L16.529 3.74596L16.5465 3.76168L12.4831 8.60385C12.4831 8.60385 11.8435 9.25919 11.8435 9.99946C11.8435 10.7403 12.4831 11.396 12.4831 11.396L16.5465 16.2372L16.5311 16.2542Z" fill="#66696D"/>
<path d="M67.5546 1.15453L67.7269 1.15271L67.7904 4.32601L67.5967 4.32269C67.2823 3.03408 66.0403 1.81319 63.5559 1.68411C60.613 1.53177 59.3392 3.28436 59.3253 4.93993C59.3069 7.14746 61.0244 7.59997 63.5704 8.21963C64.7731 8.51405 69.2183 9.09351 68.8632 14.0886C68.6129 17.5784 65.6008 19.2388 61.3357 19.1049C61.3357 19.1049 59.5641 19.0457 57.0891 18.3592C56.6269 18.2307 56.5111 18.3852 56.3216 18.7252L56.1227 18.7346L56.1294 15.3131L56.3265 15.324C56.4265 15.6704 56.4498 16.3143 57.0758 16.8632C57.5386 17.2659 58.6086 18.2619 60.9642 18.2875C63.282 18.3148 65.1984 17.3378 65.4569 14.7467C65.5264 14.0466 65.4484 12.4491 63.8914 11.72C62.6714 11.1484 59.2827 10.7708 57.6368 9.33352C57.6368 9.33352 55.6917 7.9763 56.0012 5.44383C56.4353 1.86488 59.4184 0.969836 62.1035 0.914217C62.1035 0.914217 64.505 0.891846 66.4157 1.38486C66.4157 1.38486 66.8869 1.51333 67.2799 1.36461C67.4328 1.31292 67.5084 1.21438 67.5546 1.15453ZM50.7773 9.39337C55.1373 10.4749 55.4006 13.6213 55.3377 14.5052C55.1421 18.4471 51.8005 18.8985 50.4536 18.8985H40.1673L40.1782 18.698C40.9254 18.5983 41.4843 18.1869 41.4843 16.8738L41.5478 3.30462C41.5638 1.82921 41.1754 1.38124 40.3592 1.28572L40.3435 1.10012H48.1228C49.5501 1.10012 53.846 0.814162 54.2124 4.76794C54.505 7.93156 51.0343 9.25493 50.7773 9.39337ZM51.9227 14.5321C52.0024 10.7095 49.1968 9.69595 46.2922 9.53665C46.2336 9.53332 46.255 9.38672 46.2995 9.38098C47.2426 9.3444 50.9974 8.90882 50.8417 5.32655C50.6888 1.83374 48.0388 1.75515 47.0697 1.74246C46.2826 1.73278 46.11 1.73278 45.7787 1.74729C45.2161 1.77117 45.0762 1.81017 45.078 2.42439C45.078 2.50208 44.9529 8.71385 44.8821 13.0796C44.844 15.4543 44.8389 17.284 44.8389 17.284C44.8465 17.7156 44.793 18.1594 45.8651 18.2096C46.9714 18.2634 48.3982 18.3078 49.3947 18.0965C50.3073 17.8997 51.8658 17.2335 51.9227 14.5321ZM31.4244 1.10042C35.1278 1.08228 40.005 3.62442 39.9883 9.97434C39.9723 15.4951 35.9896 18.8966 32.3019 18.8966L22.9541 18.8988L22.9659 18.7011C23.4943 18.611 24.0807 18.2815 24.1792 17.9312C24.4881 16.5993 24.4204 4.42788 24.2297 2.42167C24.1704 1.79535 23.6771 1.3909 23.0711 1.29236L23.0587 1.10042C23.0587 1.10042 30.5943 1.10374 31.4244 1.10042ZM33.1192 17.7456C34.7751 17.1495 36.8296 14.3187 36.4914 9.85827C36.1649 5.54207 34.5172 2.15355 30.1379 1.83525C30.1379 1.83525 29.3085 1.7757 28.6132 1.77087C27.8687 1.76664 27.7055 1.74276 27.6526 2.53623C27.5538 4.02766 27.5254 15.6317 27.6233 17.3088C27.6363 17.5388 27.6614 18.0905 28.6196 18.1839C30.3637 18.3537 31.8107 18.2195 33.1192 17.7456Z" fill="#66696D"/>
</svg>
