<svg width="1080" height="1080" viewBox="0 0 1080 1080" fill="none" xmlns="http://www.w3.org/2000/svg">
<rect width="1080" height="1080" rx="16" transform="matrix(1 0 0 -1 0 1080)" fill="#1C1C1C"/>
<path d="M449.375 271.75C462.656 272.01 474.505 276.177 484.922 284.25C495.339 292.323 503.672 301.958 509.922 313.156C516.432 324.354 521.25 336.203 524.375 348.703C527.5 361.203 529.062 373.964 529.062 386.984C529.062 404.172 526.328 421.099 520.859 437.766C515.651 454.172 506.927 468.755 494.688 481.516C482.708 494.276 467.604 501.177 449.375 502.219H313.047C294.818 501.438 279.583 494.667 267.344 481.906C255.104 469.146 246.38 454.432 241.172 437.766C236.224 421.099 233.75 404.172 233.75 386.984C233.75 369.797 236.354 353 241.562 336.594C246.771 319.927 255.365 305.214 267.344 292.453C279.583 279.432 294.818 272.531 313.047 271.75H320.469H441.953H449.375ZM436.094 449.875C445.99 449.354 454.193 445.708 460.703 438.938C467.474 431.906 472.292 423.833 475.156 414.719C478.021 405.604 479.453 396.359 479.453 386.984C479.453 377.609 477.891 368.495 474.766 359.641C471.901 350.526 467.214 342.453 460.703 335.422C454.193 328.391 445.99 324.615 436.094 324.094H325.156C315.26 324.615 307.057 328.391 300.547 335.422C294.036 342.453 289.219 350.526 286.094 359.641C283.229 368.495 281.797 377.609 281.797 386.984C281.797 396.359 283.229 405.604 286.094 414.719C288.958 423.833 293.646 431.906 300.156 438.938C306.927 445.708 315.26 449.354 325.156 449.875H436.094ZM624.375 482.297C622.812 497.922 614.219 506.385 598.594 507.688C591.302 507.688 584.922 505.344 579.453 500.656C574.245 495.708 571.641 489.589 571.641 482.297V297.141C571.901 289.849 574.635 283.859 579.844 279.172C585.052 274.224 591.302 271.75 598.594 271.75H617.734H665.781H762.266C763.828 271.75 765.391 271.88 766.953 272.141H769.297C787.526 272.661 802.5 276.828 814.219 284.641C825.938 292.453 834.401 301.438 839.609 311.594C844.818 321.49 847.422 331.516 847.422 341.672C847.422 352.089 844.818 362.375 839.609 372.531C834.661 382.427 826.198 391.281 814.219 399.094C802.5 406.906 787.526 411.073 769.297 411.594H700.547C702.63 424.615 706.927 434.25 713.438 440.5C719.688 446.75 727.63 449.875 737.266 449.875H821.641C828.932 450.135 834.922 452.87 839.609 458.078C844.557 463.286 847.031 469.536 847.031 476.828C846.771 483.859 844.167 489.849 839.219 494.797C834.531 499.484 828.672 501.958 821.641 502.219H730.234C710.964 502.479 693.516 494.927 677.891 479.562C662.266 464.198 652.76 445.969 649.375 424.875C644.688 401.438 642.344 388.286 642.344 385.422C642.344 378.13 644.818 372.01 649.766 367.062C654.974 361.854 661.224 359.25 668.516 359.25H771.641C776.589 358.99 780.625 357.948 783.75 356.125C787.135 354.042 789.609 351.828 791.172 349.484C792.734 346.88 793.516 344.276 793.516 341.672C793.516 339.068 792.734 336.594 791.172 334.25C789.609 331.646 787.135 329.432 783.75 327.609C780.625 325.526 776.589 324.354 771.641 324.094H665.781H634.531C627.76 324.354 624.375 327.74 624.375 334.25V482.297ZM263.828 764.047C263.828 756.755 266.302 750.635 271.25 745.688C276.458 740.479 282.708 737.875 290 737.875H365V612.094H290C282.708 612.094 276.589 609.49 271.641 604.281C266.432 599.333 263.828 593.214 263.828 585.922C263.828 578.63 266.302 572.51 271.25 567.562C276.458 562.354 282.708 559.75 290 559.75H492.344C499.635 559.75 505.885 562.224 511.094 567.172C516.042 572.38 518.516 578.63 518.516 585.922C518.516 593.214 515.911 599.464 510.703 604.672C505.755 609.62 499.635 612.094 492.344 612.094H417.734V737.875H492.344C499.635 737.875 505.885 740.349 511.094 745.297C516.042 750.505 518.516 756.755 518.516 764.047C518.516 771.339 515.911 777.589 510.703 782.797C505.755 787.745 499.635 790.219 492.344 790.219H290C282.708 790.219 276.589 787.615 271.641 782.406C266.432 777.458 263.828 771.339 263.828 764.047ZM683.359 549.203C696.901 549.203 710.182 550.766 723.203 553.891C736.484 557.016 749.115 561.703 761.094 567.953C773.073 573.943 783.62 582.016 792.734 592.172C802.109 602.328 807.188 614.438 807.969 628.5V644.906V769.516C806.406 785.141 797.812 793.604 782.188 794.906C774.896 794.906 768.516 792.562 763.047 787.875C757.839 782.927 755.234 776.807 755.234 769.516V640.609C754.714 632.536 751.589 625.896 745.859 620.688C740.391 615.219 734.141 610.922 727.109 607.797C720.339 604.672 713.177 602.328 705.625 600.766C698.333 599.203 690.911 598.422 683.359 598.422C675.807 598.422 668.255 599.203 660.703 600.766C653.411 602.328 646.25 604.672 639.219 607.797C632.448 610.922 626.198 615.219 620.469 620.688C615 625.896 612.005 632.536 611.484 640.609V769.516C610.182 785.141 601.719 793.604 586.094 794.906C578.802 794.906 572.422 792.562 566.953 787.875C561.745 782.927 559.141 776.807 559.141 769.516V644.906V628.5C559.922 614.438 564.87 602.328 573.984 592.172C583.099 582.016 593.646 573.943 605.625 567.953C617.604 561.703 630.104 557.016 643.125 553.891C656.406 550.766 669.818 549.203 683.359 549.203Z" fill="white"/>
</svg>
